<svg
  xmlns="http://www.w3.org/2000/svg"
  width="17"
  height="16"
  viewBox="0 0 17 16"
  fill="currentColor"
>
  <path
    d="M13.0521 5.47357C12.989 5.41108 12.9139 5.36148 12.8312 5.32764C12.7485 5.29379 12.6598 5.27637 12.5702 5.27637C12.4806 5.27637 12.3919 5.29379 12.3092 5.32764C12.2265 5.36148 12.1514 5.41108 12.0883 5.47357L8.9799 8.52689C8.91681 8.58938 8.84174 8.63897 8.75904 8.67282C8.67633 8.70667 8.58762 8.72409 8.49802 8.72409C8.40843 8.72409 8.31972 8.70667 8.23701 8.67282C8.1543 8.63897 8.07924 8.58938 8.01615 8.52689L4.9077 5.47357C4.8446 5.41108 4.76954 5.36148 4.68683 5.32764C4.60413 5.29379 4.51542 5.27637 4.42582 5.27637C4.33622 5.27637 4.24751 5.29379 4.16481 5.32764C4.0821 5.36148 4.00704 5.41108 3.94394 5.47357C3.81753 5.59847 3.74658 5.76744 3.74658 5.94356C3.74658 6.11969 3.81753 6.28866 3.94394 6.41356L7.05918 9.47356C7.44095 9.84809 7.95845 10.0585 8.49802 10.0585C9.03759 10.0585 9.5551 9.84809 9.93687 9.47356L13.0521 6.41356C13.1785 6.28866 13.2495 6.11969 13.2495 5.94356C13.2495 5.76744 13.1785 5.59847 13.0521 5.47357Z"
    fill="#currentColor"
  />
</svg>
