<svg
  width="16"
  height="20"
  viewBox="0 0 16 20"
  fill="none"
  xmlns="http://www.w3.org/2000/svg"
>
  <path
    d="M12.995 1.90499C11.9779 0.996274 10.7322 0.382141 9.39196 0.128681C8.05177 -0.124779 6.66782 -0.00797007 5.38907 0.466538C4.11032 0.941045 2.98517 1.75529 2.13471 2.82163C1.28426 3.88798 0.740695 5.16606 0.562522 6.51832C0.402505 7.70403 0.530481 8.91083 0.935621 10.0366C1.34076 11.1624 2.01114 12.174 2.89002 12.9858C3.43352 13.4624 3.87209 14.0468 4.17792 14.7018C4.48376 15.3567 4.6502 16.0681 4.66669 16.7908V16.925C4.66757 17.7403 4.99183 18.5219 5.56831 19.0984C6.14479 19.6749 6.92642 19.9991 7.74169 20H8.25836C9.07363 19.9991 9.85525 19.6749 10.4317 19.0984C11.0082 18.5219 11.3325 17.7403 11.3334 16.925V16.4675C11.3458 15.8287 11.4961 15.2002 11.774 14.6248C12.0519 14.0495 12.4508 13.541 12.9434 13.1342C13.7422 12.4345 14.3832 11.5731 14.824 10.6071C15.2648 9.64097 15.4953 8.59226 15.5001 7.53038C15.505 6.46851 15.2842 5.41771 14.8523 4.44762C14.4205 3.47752 13.7874 2.61027 12.995 1.90332V1.90499ZM8.25836 18.3333H7.74169C7.36831 18.3329 7.01035 18.1844 6.74633 17.9203C6.48232 17.6563 6.3338 17.2984 6.33335 16.925C6.33335 16.925 6.32752 16.7083 6.32669 16.6667H9.66669V16.925C9.66625 17.2984 9.51773 17.6563 9.25371 17.9203C8.98969 18.1844 8.63173 18.3329 8.25836 18.3333ZM11.8417 11.8825C10.8929 12.7054 10.2077 13.7898 9.87169 15H8.83335V9.01332C9.31911 8.84159 9.73995 8.52396 10.0383 8.1039C10.3366 7.68385 10.4979 7.18187 10.5 6.66666C10.5 6.44564 10.4122 6.23368 10.2559 6.0774C10.0997 5.92112 9.8877 5.83332 9.66669 5.83332C9.44567 5.83332 9.23371 5.92112 9.07743 6.0774C8.92115 6.23368 8.83335 6.44564 8.83335 6.66666C8.83335 6.88767 8.74556 7.09963 8.58928 7.25591C8.433 7.41219 8.22104 7.49999 8.00002 7.49999C7.77901 7.49999 7.56705 7.41219 7.41077 7.25591C7.25449 7.09963 7.16669 6.88767 7.16669 6.66666C7.16669 6.44564 7.07889 6.23368 6.92261 6.0774C6.76633 5.92112 6.55437 5.83332 6.33335 5.83332C6.11234 5.83332 5.90038 5.92112 5.7441 6.0774C5.58782 6.23368 5.50002 6.44564 5.50002 6.66666C5.50216 7.18187 5.66342 7.68385 5.96176 8.1039C6.2601 8.52396 6.68093 8.84159 7.16669 9.01332V15H6.06502C5.68918 13.7577 4.98429 12.6401 4.02502 11.7658C3.21082 11.0072 2.63063 10.0314 2.35291 8.95373C2.0752 7.87605 2.11156 6.74142 2.4577 5.68373C2.80383 4.62605 3.44531 3.68945 4.30641 2.98446C5.16752 2.27947 6.21232 1.83552 7.31752 1.70499C7.54663 1.67941 7.77699 1.66662 8.00752 1.66665C9.43883 1.6624 10.8206 2.19051 11.8842 3.14832C12.5006 3.69799 12.9931 4.3724 13.3291 5.12684C13.6652 5.88129 13.837 6.69854 13.8332 7.52442C13.8294 8.3503 13.6501 9.16595 13.3072 9.91728C12.9643 10.6686 12.4656 11.3385 11.8442 11.8825H11.8417Z"
    fill="#1C1F3C"
  />
</svg>
