<svg
  xmlns="http://www.w3.org/2000/svg"
  width="20"
  height="16"
  viewBox="0 0 20 16"
  fill="currentColor"
>
  <path
    d="M19.9624 13.7657C19.9299 13.6612 19.8771 13.5641 19.8071 13.48C19.7371 13.3959 19.6512 13.3264 19.5543 13.2754C19.4574 13.2245 19.3514 13.1932 19.2424 13.1832C19.1334 13.1733 19.0235 13.1849 18.919 13.2174L17.8357 13.5507L17.0599 11.2699C17.8748 10.8126 18.5104 10.0924 18.8628 9.22698C19.2152 8.36156 19.2635 7.40217 18.9999 6.50572L17.464 1.94322C17.2707 1.32035 16.8434 0.796713 16.2719 0.482458C15.7005 0.168204 15.0294 0.0878214 14.3999 0.258219L11.1899 1.15322C10.7295 1.28131 10.3162 1.54008 9.99987 1.89822C9.68355 1.54008 9.27021 1.28131 8.80987 1.15322L5.59903 0.258219C4.97409 0.0858343 4.30667 0.162271 3.73688 0.471482C3.16709 0.780693 2.73926 1.29863 2.5432 1.91655L0.987367 6.54739C0.734049 7.44315 0.790785 8.39823 1.14837 9.25771C1.50596 10.1172 2.14342 10.8307 2.95737 11.2824L2.1707 13.5557L1.0832 13.2174C0.97869 13.1846 0.868737 13.1726 0.759618 13.1823C0.650499 13.192 0.544352 13.223 0.447238 13.2737C0.350123 13.3244 0.263943 13.3937 0.193617 13.4777C0.123291 13.5617 0.0701973 13.6587 0.0373668 13.7632C0.00453635 13.8677 -0.00738781 13.9777 0.00227516 14.0868C0.0119381 14.1959 0.042999 14.3021 0.0936843 14.3992C0.14437 14.4963 0.213687 14.5825 0.297678 14.6528C0.381669 14.7231 0.47869 14.7762 0.5832 14.8091L2.3832 15.3682C2.3957 15.3682 2.4032 15.3824 2.4157 15.3874C2.4282 15.3924 2.45903 15.3924 2.4807 15.3982L4.2982 15.9624C4.50927 16.028 4.73777 16.0071 4.93343 15.9043C5.12909 15.8015 5.27589 15.6251 5.34153 15.4141C5.40718 15.203 5.38628 14.9745 5.28345 14.7788C5.18062 14.5832 5.00427 14.4364 4.7932 14.3707L3.7632 14.0499L4.54237 11.7999C4.6969 11.8197 4.85242 11.8309 5.0082 11.8332C5.90917 11.831 6.78515 11.5368 7.50481 10.9947C8.22447 10.4526 8.74904 9.69191 8.99987 8.82655L9.99987 5.86322L10.9857 8.77989C11.2287 9.65625 11.7517 10.4291 12.475 10.9804C13.1983 11.5317 14.0821 11.8312 14.9915 11.8332C15.1534 11.8317 15.3151 11.8206 15.4757 11.7999L16.2407 14.0499L15.204 14.3716C14.993 14.4372 14.8166 14.584 14.7138 14.7797C14.611 14.9753 14.5901 15.2038 14.6557 15.4149C14.7213 15.626 14.8681 15.8023 15.0638 15.9051C15.2595 16.008 15.488 16.0289 15.699 15.9632L17.5115 15.4007C17.5332 15.3949 17.5557 15.4007 17.5774 15.3899C17.599 15.3791 17.599 15.3741 17.6124 15.3691L19.414 14.8099C19.5186 14.7774 19.6158 14.7246 19.7 14.6545C19.7842 14.5845 19.8538 14.4985 19.9047 14.4015C19.9556 14.3045 19.9869 14.1984 19.9968 14.0893C20.0067 13.9803 19.995 13.8703 19.9624 13.7657ZM11.1307 3.15989C11.1837 3.06224 11.2559 2.97632 11.343 2.90729C11.4301 2.83827 11.5302 2.78756 11.6374 2.75822L14.8465 1.86405C14.9182 1.844 14.9922 1.83363 15.0665 1.83322C15.2498 1.83515 15.4276 1.89611 15.5735 2.00704C15.7194 2.11797 15.8257 2.27297 15.8765 2.44905L16.5107 4.33322H11.2415L11.0624 3.80239C11.0304 3.69613 11.02 3.58457 11.0317 3.47424C11.0435 3.36391 11.0771 3.25704 11.1307 3.15989ZM4.93153 1.83322C5.00615 1.83336 5.08042 1.84345 5.15237 1.86322L8.36237 2.75822C8.57443 2.81671 8.75477 2.95668 8.86405 3.1476C8.97332 3.33852 9.00268 3.56491 8.9457 3.77739L8.7582 4.33322H3.48903L4.1307 2.42489C4.18366 2.25376 4.28993 2.10405 4.434 1.99761C4.57808 1.89116 4.75241 1.83356 4.93153 1.83322ZM7.40987 8.33322C7.27676 8.80889 7.00573 9.23448 6.63098 9.55626C6.25622 9.87804 5.79455 10.0816 5.30422 10.1412C4.81388 10.2009 4.31687 10.1139 3.87591 9.89137C3.43494 9.66881 3.06979 9.32061 2.82653 8.89072C2.50447 8.32911 2.41702 7.6631 2.5832 7.03739L2.9282 5.99989H8.19654L7.40987 8.33322ZM13.7699 9.83989C13.4779 9.67419 13.2219 9.45178 13.0172 9.18574C12.8124 8.9197 12.6628 8.61539 12.5774 8.29072L11.8032 5.99989H17.0724L17.4057 6.99489C17.5387 7.47141 17.5273 7.97668 17.373 8.44673C17.2187 8.91678 16.9284 9.33048 16.5388 9.63545C16.1493 9.94042 15.678 10.123 15.1846 10.1599C14.6913 10.1969 14.198 10.0867 13.7674 9.84322L13.7699 9.83989Z"
    fill="currentColor"
  />
</svg>
