<svg
  xmlns="http://www.w3.org/2000/svg"
  width="20"
  height="20"
  viewBox="0 0 20 20"
  fill="currentColor"
>
  <g clip-path="url(#clip0_2405_25438)">
    <path
      d="M20 9.37297C19.8794 7.42299 19.1909 5.5509 18.0193 3.98749C16.8477 2.42409 15.2441 1.23771 13.4064 0.574632C11.5687 -0.0884492 9.57705 -0.199252 7.6771 0.255883C5.77715 0.711018 4.05192 1.71219 2.71409 3.13599C1.37626 4.55978 0.484331 6.34394 0.148249 8.26852C-0.187833 10.1931 0.0466277 12.174 0.822727 13.9669C1.59883 15.7598 2.88264 17.2865 4.51589 18.3586C6.14914 19.4307 8.06043 20.0015 10.0141 20.0005H15.8333C16.938 19.9994 17.9972 19.56 18.7784 18.7789C19.5595 17.9977 19.9989 16.9385 20 15.8338V9.37297ZM18.3333 15.8338C18.3333 16.4968 18.0699 17.1327 17.6011 17.6016C17.1322 18.0704 16.4963 18.3338 15.8333 18.3338H10.0141C8.83824 18.3333 7.67567 18.0849 6.60221 17.6049C5.52876 17.1249 4.56853 16.424 3.78413 15.548C2.99594 14.6724 2.40407 13.6384 2.04821 12.5153C1.69235 11.3922 1.58071 10.206 1.7208 9.0363C1.94199 7.19125 2.77095 5.47229 4.077 4.15041C5.38304 2.82852 7.09188 1.97889 8.93413 1.73547C9.29349 1.69043 9.65529 1.66761 10.0175 1.66714C11.9595 1.66184 13.8415 2.34039 15.3333 3.5838C16.2046 4.30792 16.9197 5.20143 17.4354 6.21016C17.9511 7.21889 18.2566 8.32184 18.3333 9.45214V15.8338Z"
      fill="#1C1F3C"
    />
    <path
      d="M6.66634 7.49967H9.99967C10.2207 7.49967 10.4326 7.41187 10.5889 7.25559C10.7452 7.09931 10.833 6.88735 10.833 6.66634C10.833 6.44533 10.7452 6.23337 10.5889 6.07709C10.4326 5.92081 10.2207 5.83301 9.99967 5.83301H6.66634C6.44533 5.83301 6.23337 5.92081 6.07709 6.07709C5.92081 6.23337 5.83301 6.44533 5.83301 6.66634C5.83301 6.88735 5.92081 7.09931 6.07709 7.25559C6.23337 7.41187 6.44533 7.49967 6.66634 7.49967Z"
      fill="#1C1F3C"
    />
    <path
      d="M13.333 9.16699H6.66634C6.44533 9.16699 6.23337 9.25479 6.07709 9.41107C5.92081 9.56735 5.83301 9.77932 5.83301 10.0003C5.83301 10.2213 5.92081 10.4333 6.07709 10.5896C6.23337 10.7459 6.44533 10.8337 6.66634 10.8337H13.333C13.554 10.8337 13.766 10.7459 13.9223 10.5896C14.0785 10.4333 14.1663 10.2213 14.1663 10.0003C14.1663 9.77932 14.0785 9.56735 13.9223 9.41107C13.766 9.25479 13.554 9.16699 13.333 9.16699Z"
      fill="#1C1F3C"
    />
    <path
      d="M13.333 12.5H6.66634C6.44533 12.5 6.23337 12.5878 6.07709 12.7441C5.92081 12.9004 5.83301 13.1123 5.83301 13.3333C5.83301 13.5544 5.92081 13.7663 6.07709 13.9226C6.23337 14.0789 6.44533 14.1667 6.66634 14.1667H13.333C13.554 14.1667 13.766 14.0789 13.9223 13.9226C14.0785 13.7663 14.1663 13.5544 14.1663 13.3333C14.1663 13.1123 14.0785 12.9004 13.9223 12.7441C13.766 12.5878 13.554 12.5 13.333 12.5Z"
      fill="#1C1F3C"
    />
  </g>
  <defs>
    <clipPath id="clip0_2405_25438">
      <rect width="20" height="20" fill="currentColor" />
    </clipPath>
  </defs>
</svg>
