<svg
  xmlns="http://www.w3.org/2000/svg"
  width="8"
  height="10"
  viewBox="0 0 8 10"
  fill="currentColor"
>
  <path
    d="M7.80671 5.47301C7.74473 5.41052 7.671 5.36093 7.58976 5.32708C7.50852 5.29323 7.42138 5.27581 7.33337 5.27581C7.24537 5.27581 7.15823 5.29323 7.07699 5.32708C6.99575 5.36093 6.92202 5.41052 6.86004 5.47301L4.66671 7.66634V0.999674C4.66671 0.822863 4.59647 0.653294 4.47144 0.52827C4.34642 0.403246 4.17685 0.333008 4.00004 0.333008C3.82323 0.333008 3.65366 0.403246 3.52864 0.52827C3.40361 0.653294 3.33337 0.822863 3.33337 0.999674V7.66634L1.14004 5.47301C1.07806 5.41052 1.00433 5.36093 0.923091 5.32708C0.841852 5.29323 0.754715 5.27581 0.666707 5.27581C0.578699 5.27581 0.491562 5.29323 0.410322 5.32708C0.329083 5.36093 0.255349 5.41052 0.193373 5.47301C0.0692061 5.59792 -0.000488281 5.76688 -0.000488281 5.94301C-0.000488281 6.11913 0.0692061 6.2881 0.193373 6.41301L3.06004 9.27301C3.30894 9.5234 3.64699 9.66485 4.00004 9.66634C4.35078 9.6631 4.68611 9.52178 4.93337 9.27301L7.80004 6.41301C7.9251 6.28898 7.99599 6.12051 7.99724 5.94438C7.99849 5.76826 7.92999 5.59879 7.80671 5.47301Z"
    fill="currentColor"
  />
</svg>
