<svg
  xmlns="http://www.w3.org/2000/svg"
  width="17"
  height="16"
  viewBox="0 0 17 16"
  fill="currentColor"
>
  <g clipPath="url(#clip0_2705_4092)">
    <path
      d="M13.0002 0.666992H3.66683C2.7831 0.668051 1.93587 1.01958 1.31098 1.64447C0.686084 2.26936 0.334555 3.1166 0.333496 4.00033L0.333496 12.0003C0.334555 12.8841 0.686084 13.7313 1.31098 14.3562C1.93587 14.9811 2.7831 15.3326 3.66683 15.3337H13.0002C13.8839 15.3326 14.7311 14.9811 15.356 14.3562C15.9809 13.7313 16.3324 12.8841 16.3335 12.0003V4.00033C16.3324 3.1166 15.9809 2.26936 15.356 1.64447C14.7311 1.01958 13.8839 0.668051 13.0002 0.666992ZM3.66683 2.00033H13.0002C13.3994 2.00111 13.7892 2.12134 14.1195 2.34553C14.4498 2.56972 14.7054 2.88762 14.8535 3.25833L9.74816 8.36432C9.37245 8.73853 8.86377 8.94864 8.3335 8.94864C7.80322 8.94864 7.29454 8.73853 6.91883 8.36432L1.8135 3.25833C1.9616 2.88762 2.21724 2.56972 2.54753 2.34553C2.87782 2.12134 3.26764 2.00111 3.66683 2.00033ZM13.0002 14.0003H3.66683C3.1364 14.0003 2.62769 13.7896 2.25262 13.4145C1.87754 13.0395 1.66683 12.5308 1.66683 12.0003V5.00033L5.97616 9.30699C6.60191 9.93116 7.44967 10.2817 8.3335 10.2817C9.21733 10.2817 10.0651 9.93116 10.6908 9.30699L15.0002 5.00033V12.0003C15.0002 12.5308 14.7894 13.0395 14.4144 13.4145C14.0393 13.7896 13.5306 14.0003 13.0002 14.0003Z"
      fill="currentColor"
    />
  </g>
  <defs>
    <clipPath id="clip0_2705_4092">
      <rect
        width="16"
        height="16"
        fill="currentColor"
        transform="translate(0.333496)"
      />
    </clipPath>
  </defs>
</svg>
