<svg
  xmlns="http://www.w3.org/2000/svg"
  width="20"
  height="20"
  viewBox="0 0 20 20"
  fill="currentColor"
>
  <g clipPath="url(#clip0_2405_25449)">
    <path
      d="M19.3923 7.84858C18.0998 5.74358 15.1598 2.21191 9.9998 2.21191C4.8398 2.21191 1.8998 5.74358 0.607299 7.84858C0.207739 8.49484 -0.00390625 9.23962 -0.00390625 9.99941C-0.00390625 10.7592 0.207739 11.504 0.607299 12.1502C1.8998 14.2552 4.8398 17.7869 9.9998 17.7869C15.1598 17.7869 18.0998 14.2552 19.3923 12.1502C19.7919 11.504 20.0035 10.7592 20.0035 9.99941C20.0035 9.23962 19.7919 8.49484 19.3923 7.84858ZM17.9715 11.2777C16.8615 13.0827 14.349 16.1202 9.9998 16.1202C5.65063 16.1202 3.13813 13.0827 2.02813 11.2777C1.79074 10.8936 1.66501 10.451 1.66501 9.99941C1.66501 9.54785 1.79074 9.10521 2.02813 8.72108C3.13813 6.91608 5.65063 3.87858 9.9998 3.87858C14.349 3.87858 16.8615 6.91275 17.9715 8.72108C18.2089 9.10521 18.3346 9.54785 18.3346 9.99941C18.3346 10.451 18.2089 10.8936 17.9715 11.2777Z"
      fill="currentColor"
    />
    <path
      d="M9.99968 5.83301C9.17559 5.83301 8.37001 6.07738 7.6848 6.53522C6.9996 6.99306 6.46554 7.6438 6.15018 8.40516C5.83481 9.16652 5.7523 10.0043 5.91307 10.8126C6.07384 11.6208 6.47068 12.3632 7.0534 12.946C7.63612 13.5287 8.37855 13.9255 9.1868 14.0863C9.99505 14.2471 10.8328 14.1645 11.5942 13.8492C12.3555 13.5338 13.0063 12.9998 13.4641 12.3146C13.922 11.6293 14.1663 10.8238 14.1663 9.99967C14.165 8.89501 13.7256 7.83597 12.9445 7.05486C12.1634 6.27374 11.1043 5.83433 9.99968 5.83301ZM9.99968 12.4997C9.50522 12.4997 9.02187 12.3531 8.61075 12.0783C8.19963 11.8036 7.8792 11.4132 7.68998 10.9564C7.50076 10.4996 7.45125 9.9969 7.54771 9.51195C7.64418 9.027 7.88228 8.58154 8.23191 8.23191C8.58154 7.88228 9.027 7.64417 9.51195 7.54771C9.9969 7.45125 10.4996 7.50076 10.9564 7.68998C11.4132 7.87919 11.8036 8.19963 12.0784 8.61075C12.3531 9.02187 12.4997 9.50522 12.4997 9.99967C12.4997 10.6627 12.2363 11.2986 11.7674 11.7674C11.2986 12.2363 10.6627 12.4997 9.99968 12.4997Z"
      fill="currentColor"
    />
    <line x1="0" y1="20" x2="20" y2="0" stroke="#1C1F3C" strokeWidth="1" />
  </g>
  <defs>
    <clipPath id="clip0_2405_25449">
      <rect width="20" height="20" fill="currentColor" />
    </clipPath>
  </defs>
</svg>
