<svg
  xmlns="http://www.w3.org/2000/svg"
  width="20"
  height="20"
  viewBox="0 0 20 20"
  fill="currentColor"
>
  <path
    d="M11.6667 20C11.4864 20 11.311 19.9415 11.1667 19.8333L7.8334 17.3333C7.7299 17.2557 7.6459 17.1551 7.58804 17.0393C7.53019 16.9236 7.50006 16.796 7.50006 16.6667V11.9833L1.6534 5.40583C1.23817 4.9374 0.967048 4.35901 0.872632 3.7402C0.778216 3.12138 0.864519 2.48846 1.12117 1.91751C1.37782 1.34656 1.79389 0.861882 2.31938 0.521721C2.84487 0.181561 3.45742 0.000395349 4.0834 0L15.9167 0C16.5427 0.000734209 17.1551 0.182199 17.6803 0.522589C18.2056 0.862978 18.6214 1.34781 18.8778 1.91882C19.1342 2.48983 19.2202 3.12273 19.1255 3.74146C19.0309 4.36018 18.7596 4.93841 18.3442 5.40667L12.5001 11.9833V19.1667C12.5001 19.3877 12.4123 19.5996 12.256 19.7559C12.0997 19.9122 11.8877 20 11.6667 20ZM9.16673 16.25L10.8334 17.5V11.6667C10.8336 11.4626 10.9086 11.2657 11.0442 11.1133L17.1009 4.29917C17.3029 4.0709 17.4346 3.7892 17.4804 3.48788C17.5262 3.18655 17.4841 2.87842 17.359 2.60046C17.234 2.32251 17.0314 2.08655 16.7756 1.92091C16.5197 1.75527 16.2215 1.66699 15.9167 1.66667H4.0834C3.77877 1.66713 3.48075 1.75546 3.22507 1.92105C2.96939 2.08665 2.7669 2.3225 2.6419 2.60029C2.5169 2.87809 2.47469 3.18605 2.52034 3.48723C2.56598 3.78842 2.69754 4.07004 2.89923 4.29833L8.95673 11.1133C9.09208 11.2659 9.16679 11.4627 9.16673 11.6667V16.25Z"
    fill="currentColor"
  />
</svg>
