<svg
  xmlns="http://www.w3.org/2000/svg"
  width="17"
  height="16"
  viewBox="0 0 17 16"
  fill="currentColor"
>
  <g clipPath="url(#clip0_2405_25819)">
    <path
      d="M15.9312 6.314L15.4065 5.6C15.0429 5.10529 14.5684 4.7028 14.0209 4.42491C13.4735 4.14701 12.8684 4.00148 12.2545 4H4.75517C4.15385 4.00157 3.56092 4.14118 3.02207 4.40806C2.48322 4.67494 2.01284 5.06197 1.64717 5.53933L1.09984 6.25533C0.65549 6.84153 0.446574 7.57279 0.514182 8.30525C0.581791 9.03772 0.921029 9.71837 1.46517 10.2133L6.79184 15.3513C7.25968 15.7686 7.86498 15.9986 8.49184 15.9973C9.13198 15.9961 9.74916 15.7587 10.2252 15.3307L15.5158 10.242C16.0631 9.7574 16.4092 9.08556 16.4861 8.35863C16.5629 7.63171 16.365 6.90233 15.9312 6.314ZM14.3312 6.38533L14.8558 7.10133C14.9086 7.1746 14.9549 7.25221 14.9945 7.33333H11.8005C11.7522 7.01408 11.6691 6.7011 11.5525 6.4L11.1258 5.33333H12.2545C12.6588 5.3341 13.0573 5.42967 13.4179 5.61237C13.7786 5.79508 14.0914 6.05982 14.3312 6.38533ZM8.49317 13.392L6.64717 9.212C6.5804 9.0352 6.52997 8.85266 6.4965 8.66667H10.4645C10.4365 8.81325 10.3973 8.95745 10.3472 9.098L8.49317 13.392ZM6.5665 7.33333C6.59438 7.21381 6.62933 7.09605 6.67117 6.98067L7.32717 5.33333H9.68984L10.3145 6.89533C10.3693 7.03796 10.4139 7.18434 10.4478 7.33333H6.5665ZM2.70717 6.34733C2.94821 6.0329 3.25819 5.77797 3.61325 5.60217C3.96831 5.42638 4.35897 5.3344 4.75517 5.33333H5.8885L5.43317 6.486C5.32331 6.75949 5.24134 7.04338 5.1885 7.33333H1.9965C2.04223 7.2391 2.0974 7.14976 2.16117 7.06667L2.70717 6.34733ZM2.37384 9.236C2.19992 9.07824 2.06328 8.88377 1.97384 8.66667H5.15517C5.19938 9.02585 5.28598 9.37853 5.41317 9.71733L7.29784 13.984L2.37384 9.236ZM9.6805 14.0093L11.5832 9.6C11.6936 9.29824 11.7705 8.98525 11.8125 8.66667H15.0332C14.9388 8.89552 14.7946 9.10049 14.6112 9.26667L9.6805 14.0093Z"
      fill="currentColor"
    />
    <path
      d="M8.49992 2.66667C8.67673 2.66667 8.8463 2.59643 8.97133 2.4714C9.09635 2.34638 9.16659 2.17681 9.16659 2V0.666667C9.16659 0.489856 9.09635 0.320286 8.97133 0.195262C8.8463 0.0702379 8.67673 0 8.49992 0C8.32311 0 8.15354 0.0702379 8.02852 0.195262C7.90349 0.320286 7.83325 0.489856 7.83325 0.666667V2C7.83325 2.17681 7.90349 2.34638 8.02852 2.4714C8.15354 2.59643 8.32311 2.66667 8.49992 2.66667Z"
      fill="currentColor"
    />
    <path
      d="M11.5352 2.60028C11.6139 2.63985 11.6997 2.66344 11.7876 2.66966C11.8754 2.67589 11.9637 2.66463 12.0472 2.63655C12.1307 2.60847 12.2078 2.56412 12.2741 2.50605C12.3403 2.44799 12.3944 2.37737 12.4332 2.29828L13.0999 0.964945C13.1789 0.806699 13.1918 0.623538 13.1358 0.455756C13.0798 0.287973 12.9595 0.149313 12.8012 0.0702785C12.643 -0.00875599 12.4598 -0.0216905 12.292 0.0343203C12.1242 0.0903312 11.9856 0.210699 11.9065 0.368945L11.2399 1.70228C11.2001 1.78059 11.1761 1.86599 11.1694 1.95358C11.1627 2.04117 11.1734 2.12923 11.2009 2.21267C11.2283 2.29612 11.272 2.37333 11.3293 2.43985C11.3867 2.50636 11.4567 2.56089 11.5352 2.60028Z"
      fill="currentColor"
    />
    <path
      d="M4.57004 2.29828C4.64907 2.45697 4.78791 2.57776 4.956 2.63408C5.1241 2.69041 5.30768 2.67765 5.46637 2.59861C5.62506 2.51958 5.74585 2.38074 5.80217 2.21265C5.8585 2.04455 5.84574 1.86097 5.7667 1.70228L5.10004 0.368945C5.0609 0.29059 5.00672 0.22071 4.94058 0.163295C4.87444 0.10588 4.79764 0.0620541 4.71456 0.0343203C4.54678 -0.0216905 4.36362 -0.00875599 4.20537 0.0702785C4.04713 0.149313 3.92676 0.287973 3.87075 0.455756C3.81474 0.623538 3.82767 0.806699 3.9067 0.964945L4.57004 2.29828Z"
      fill="currentColor"
    />
  </g>
  <defs>
    <clipPath id="clip0_2405_25819">
      <rect
        width="16"
        height="16"
        fill="currentColor"
        transform="translate(0.5)"
      />
    </clipPath>
  </defs>
</svg>
