<svg
  xmlns="http://www.w3.org/2000/svg"
  width="17"
  height="16"
  viewBox="0 0 17 16"
  fill="currentColor"
>
  <g clipPath="url(#clip0_2705_1375)">
    <path
      d="M8.3335 0C3.9135 0 0.333496 3.58 0.333496 8C0.333496 11.54 2.6235 14.53 5.8035 15.59C6.2035 15.66 6.3535 15.42 6.3535 15.21C6.3535 15.02 6.3435 14.39 6.3435 13.72C4.3335 14.09 3.8135 13.23 3.6535 12.78C3.5635 12.55 3.1735 11.84 2.8335 11.65C2.5535 11.5 2.1535 11.13 2.8235 11.12C3.4535 11.11 3.9035 11.7 4.0535 11.94C4.7735 13.15 5.9235 12.81 6.3835 12.6C6.4535 12.08 6.6635 11.73 6.8935 11.53C5.1135 11.33 3.2535 10.64 3.2535 7.58C3.2535 6.71 3.5635 5.99 4.0735 5.43C3.9935 5.23 3.7135 4.41 4.1535 3.31C4.1535 3.31 4.8235 3.1 6.3535 4.13C6.9935 3.95 7.6735 3.86 8.3535 3.86C9.0335 3.86 9.7135 3.95 10.3535 4.13C11.8835 3.09 12.5535 3.31 12.5535 3.31C12.9935 4.41 12.7135 5.23 12.6335 5.43C13.1435 5.99 13.4535 6.7 13.4535 7.58C13.4535 10.65 11.5835 11.33 9.8035 11.53C10.0935 11.78 10.3435 12.26 10.3435 13.01C10.3435 14.08 10.3335 14.94 10.3335 15.21C10.3335 15.42 10.4835 15.67 10.8835 15.59C12.4717 15.054 13.8518 14.0333 14.8295 12.6718C15.8072 11.3102 16.3332 9.67624 16.3335 8C16.3335 3.58 12.7535 0 8.3335 0Z"
      fill="currentColor"
    />
  </g>
  <defs>
    <clipPath id="clip0_2705_1375">
      <rect
        width="16"
        height="16"
        fill="currentColor"
        transform="translate(0.333496)"
      />
    </clipPath>
  </defs>
</svg>
