<svg
  xmlns="http://www.w3.org/2000/svg"
  width="17"
  height="16"
  viewBox="0 0 17 16"
  fill="currentColor"
>
  <g clipPath="url(#clip0_2705_3658)">
    <path
      d="M8.66675 0C7.0845 0 5.53778 0.469192 4.22219 1.34824C2.9066 2.22729 1.88122 3.47672 1.27572 4.93853C0.670214 6.40034 0.511788 8.00887 0.820469 9.56072C1.12915 11.1126 1.89108 12.538 3.0099 13.6569C4.12872 14.7757 5.55418 15.5376 7.10603 15.8463C8.65788 16.155 10.2664 15.9965 11.7282 15.391C13.19 14.7855 14.4395 13.7602 15.3185 12.4446C16.1976 11.129 16.6668 9.58225 16.6668 8C16.6645 5.87897 15.8209 3.84547 14.3211 2.34568C12.8213 0.845886 10.7878 0.00229405 8.66675 0V0ZM14.4314 4.66667H12.2841C11.8034 3.55266 11.1705 2.51072 10.4034 1.57067C12.1011 2.03262 13.5483 3.14498 14.4314 4.66667ZM11.6668 8C11.6613 8.67876 11.5543 9.35288 11.3494 10H5.98409C5.77919 9.35288 5.67222 8.67876 5.66675 8C5.67222 7.32124 5.77919 6.64712 5.98409 6H11.3494C11.5543 6.64712 11.6613 7.32124 11.6668 8ZM6.51875 11.3333H10.8148C10.2489 12.4505 9.52552 13.4806 8.66675 14.392C7.80767 13.4808 7.08425 12.4507 6.51875 11.3333ZM6.51875 4.66667C7.08459 3.54952 7.80798 2.51944 8.66675 1.608C9.52584 2.51918 10.2493 3.54931 10.8148 4.66667H6.51875ZM6.93342 1.57067C6.16519 2.51052 5.53114 3.55247 5.04942 4.66667H2.90209C3.78599 3.14429 5.23452 2.03184 6.93342 1.57067ZM2.30742 6H4.60009C4.42726 6.65276 4.33766 7.32476 4.33342 8C4.33766 8.67524 4.42726 9.34724 4.60009 10H2.30742C1.89765 8.69815 1.89765 7.30185 2.30742 6ZM2.90209 11.3333H5.04942C5.53114 12.4475 6.16519 13.4895 6.93342 14.4293C5.23452 13.9682 3.78599 12.8557 2.90209 11.3333ZM10.4034 14.4293C11.1705 13.4893 11.8034 12.4473 12.2841 11.3333H14.4314C13.5483 12.855 12.1011 13.9674 10.4034 14.4293ZM15.0261 10H12.7334C12.9062 9.34724 12.9958 8.67524 13.0001 8C12.9958 7.32476 12.9062 6.65276 12.7334 6H15.0248C15.4345 7.30185 15.4345 8.69815 15.0248 10H15.0261Z"
      fill="currentColor"
    />
  </g>
  <defs>
    <clipPath id="clip0_2705_3658">
      <rect
        width="16"
        height="16"
        fill="currentColor"
        transform="translate(0.666748)"
      />
    </clipPath>
  </defs>
</svg>
