<svg
  xmlns="http://www.w3.org/2000/svg"
  width="20"
  height="20"
  viewBox="0 0 28 25"
  fill="currentColor"
>
  <path
    d="M19.5358 1.1677L19.5137 1.16674L19.4916 1.16708C18.2334 1.18665 17.0026 1.53789 15.9235 2.18532C15.1843 2.62884 14.5343 3.20061 14.0022 3.87073C13.4702 3.20061 12.8201 2.62884 12.0809 2.18532C11.0018 1.53789 9.77107 1.18665 8.51285 1.16708L8.49073 1.16674L8.46863 1.1677C6.47525 1.25431 4.59716 2.12633 3.24468 3.59325C1.89539 5.05671 1.17864 6.99359 1.24997 8.98248C1.25489 11.4986 2.56942 14.0352 4.2985 16.3064C6.04435 18.5997 8.29123 20.7239 10.3196 22.4254C11.3511 23.2919 12.6551 23.767 14.0022 23.767C15.3494 23.767 16.6534 23.2919 17.6848 22.4254C19.7132 20.7239 21.9601 18.5997 23.7059 16.3064C25.435 14.0352 26.7496 11.4986 26.7545 8.98246C26.8258 6.99358 26.109 5.05671 24.7598 3.59325C23.4073 2.12633 21.5292 1.25431 19.5358 1.1677ZM12.57 19.7468L12.5689 19.7459C10.0317 17.6171 8.05912 15.5506 6.72733 13.6811C5.38216 11.7929 4.75034 10.189 4.75034 8.96832V8.94808L4.74924 8.92786C4.69155 7.86004 5.05843 6.81272 5.76987 6.01433C6.47113 5.22737 7.45107 4.74519 8.50118 4.66903C9.5513 4.74519 10.5312 5.22737 11.2325 6.01433C11.9439 6.81272 12.3108 7.86004 12.2531 8.92786L12.252 8.94808V8.96832C12.252 9.4325 12.4364 9.87767 12.7647 10.2059C13.0929 10.5341 13.538 10.7185 14.0022 10.7185C14.4664 10.7185 14.9116 10.5341 15.2398 10.2059C15.568 9.87767 15.7524 9.4325 15.7524 8.96832V8.94808L15.7513 8.92786C15.6936 7.86004 16.0605 6.81272 16.7719 6.01433C17.4732 5.22737 18.4531 4.74519 19.5033 4.66903C20.5534 4.74519 21.5333 5.22737 22.2346 6.01433C22.946 6.81272 23.3129 7.86004 23.2552 8.92786L23.2541 8.94808V8.96832C23.2541 10.189 22.6223 11.7928 21.2772 13.6806C19.9454 15.5495 17.9729 17.6149 15.4358 19.7417L15.3391 19.8227C14.9546 20.112 14.4856 20.2695 14.0022 20.2695C13.4781 20.2695 12.9709 20.0844 12.57 19.7468Z"
    fill="currentColor"
    stroke="white"
    strokeWidth="1.5"
  />
</svg>
