<svg
  xmlns="http://www.w3.org/2000/svg"
  width="20"
  height="21"
  viewBox="0 0 20 21"
  fill="currentColor"
>
  <g clipPath="url(#clip0_2839_3921)">
    <path
      d="M19.9998 9.87297C19.8793 7.92299 19.1908 6.0509 18.0192 4.48749C16.8475 2.92409 15.244 1.73771 13.4063 1.07463C11.5685 0.411551 9.57693 0.300748 7.67698 0.755883C5.77703 1.21102 4.05179 2.21219 2.71397 3.63599C1.37614 5.05978 0.484209 6.84394 0.148127 8.76852C-0.187955 10.6931 0.0465057 12.674 0.822605 14.4669C1.59871 16.2598 2.88251 17.7865 4.51577 18.8586C6.14901 19.9307 8.06031 20.5015 10.014 20.5005H15.8332C16.9379 20.4994 17.9971 20.06 18.7782 19.2789C19.5594 18.4977 19.9987 17.4385 19.9998 16.3338V9.87297ZM18.3332 16.3338C18.3332 16.9968 18.0698 17.6327 17.6009 18.1016C17.1321 18.5704 16.4962 18.8338 15.8332 18.8338H10.014C8.83812 18.8333 7.67554 18.5849 6.60209 18.1049C5.52863 17.6249 4.5684 16.924 3.78401 16.048C2.99582 15.1724 2.40395 14.1384 2.04809 13.0153C1.69222 11.8922 1.58059 10.706 1.72068 9.5363C1.94187 7.69125 2.77083 5.97229 4.07688 4.65041C5.38292 3.32852 7.09176 2.47889 8.93401 2.23547C9.29337 2.19043 9.65517 2.16761 10.0173 2.16714C11.9594 2.16184 13.8413 2.84039 15.3332 4.0838C16.2044 4.80792 16.9196 5.70143 17.4353 6.71016C17.951 7.71889 18.2564 8.82184 18.3332 9.95214V16.3338Z"
      fill="currentColor"
    />
    <path
      d="M6.66659 7.99967H9.99992C10.2209 7.99967 10.4329 7.91187 10.5892 7.75559C10.7455 7.59931 10.8333 7.38735 10.8333 7.16634C10.8333 6.94533 10.7455 6.73337 10.5892 6.57709C10.4329 6.42081 10.2209 6.33301 9.99992 6.33301H6.66659C6.44557 6.33301 6.23361 6.42081 6.07733 6.57709C5.92105 6.73337 5.83325 6.94533 5.83325 7.16634C5.83325 7.38735 5.92105 7.59931 6.07733 7.75559C6.23361 7.91187 6.44557 7.99967 6.66659 7.99967Z"
      fill="currentColor"
    />
    <path
      d="M13.3333 9.66699H6.66659C6.44557 9.66699 6.23361 9.75479 6.07733 9.91107C5.92105 10.0674 5.83325 10.2793 5.83325 10.5003C5.83325 10.7213 5.92105 10.9333 6.07733 11.0896C6.23361 11.2459 6.44557 11.3337 6.66659 11.3337H13.3333C13.5543 11.3337 13.7662 11.2459 13.9225 11.0896C14.0788 10.9333 14.1666 10.7213 14.1666 10.5003C14.1666 10.2793 14.0788 10.0674 13.9225 9.91107C13.7662 9.75479 13.5543 9.66699 13.3333 9.66699Z"
      fill="currentColor"
    />
    <path
      d="M13.3333 13H6.66659C6.44557 13 6.23361 13.0878 6.07733 13.2441C5.92105 13.4004 5.83325 13.6123 5.83325 13.8333C5.83325 14.0544 5.92105 14.2663 6.07733 14.4226C6.23361 14.5789 6.44557 14.6667 6.66659 14.6667H13.3333C13.5543 14.6667 13.7662 14.5789 13.9225 14.4226C14.0788 14.2663 14.1666 14.0544 14.1666 13.8333C14.1666 13.6123 14.0788 13.4004 13.9225 13.2441C13.7662 13.0878 13.5543 13 13.3333 13Z"
      fill="currentColor"
    />
  </g>
  <defs>
    <clipPath id="clip0_2839_3921">
      <rect
        width="20"
        height="20"
        fill="currentColor"
        transform="translate(0 0.5)"
      />
    </clipPath>
  </defs>
</svg>
