<svg
  xmlns="http://www.w3.org/2000/svg"
  width="16"
  height="16"
  viewBox="0 0 16 16"
  fill="currentColor"
>
  <g clipPath="url(#clip0_2648_4262)">
    <path
      d="M8.00016 4C7.47275 4 6.95718 4.1564 6.51864 4.44941C6.08011 4.74243 5.73832 5.15891 5.53649 5.64618C5.33465 6.13345 5.28184 6.66962 5.38474 7.18691C5.48763 7.70419 5.74161 8.17934 6.11455 8.55228C6.48749 8.92522 6.96264 9.1792 7.47992 9.28209C7.99721 9.38499 8.53338 9.33218 9.02065 9.13034C9.50792 8.92851 9.9244 8.58672 10.2174 8.14819C10.5104 7.70966 10.6668 7.19408 10.6668 6.66667C10.6668 5.95942 10.3859 5.28115 9.88578 4.78105C9.38569 4.28095 8.70741 4 8.00016 4ZM8.00016 8C7.73646 8 7.47867 7.9218 7.2594 7.77529C7.04014 7.62878 6.86924 7.42055 6.76832 7.17691C6.66741 6.93328 6.641 6.66519 6.69245 6.40655C6.7439 6.1479 6.87089 5.91033 7.05736 5.72386C7.24383 5.53739 7.4814 5.4104 7.74004 5.35895C7.99869 5.30751 8.26677 5.33391 8.51041 5.43483C8.75404 5.53574 8.96228 5.70664 9.10879 5.92591C9.2553 6.14517 9.3335 6.40296 9.3335 6.66667C9.3335 7.02029 9.19302 7.35943 8.94297 7.60947C8.69292 7.85952 8.35379 8 8.00016 8Z"
      fill="currentColor"
    />
    <path
      d="M7.99996 16.0004C7.43859 16.0032 6.8847 15.8716 6.38467 15.6164C5.88464 15.3612 5.45303 14.99 5.12596 14.5337C2.5853 11.029 1.29663 8.39436 1.29663 6.70236C1.29663 4.92452 2.00287 3.2195 3.25999 1.96238C4.51711 0.705266 6.22213 -0.000976562 7.99996 -0.000976562C9.7778 -0.000976562 11.4828 0.705266 12.7399 1.96238C13.9971 3.2195 14.7033 4.92452 14.7033 6.70236C14.7033 8.39436 13.4146 11.029 10.874 14.5337C10.5469 14.99 10.1153 15.3612 9.61525 15.6164C9.11522 15.8716 8.56133 16.0032 7.99996 16.0004ZM7.99996 1.45436C6.60824 1.45595 5.27398 2.00951 4.28988 2.9936C3.30578 3.9777 2.75222 5.31197 2.75063 6.70369C2.75063 8.04369 4.01263 10.5217 6.3033 13.681C6.49776 13.9489 6.75288 14.1669 7.04777 14.3172C7.34267 14.4675 7.66897 14.5459 7.99996 14.5459C8.33096 14.5459 8.65726 14.4675 8.95216 14.3172C9.24705 14.1669 9.50217 13.9489 9.69663 13.681C11.9873 10.5217 13.2493 8.04369 13.2493 6.70369C13.2477 5.31197 12.6941 3.9777 11.71 2.9936C10.726 2.00951 9.39169 1.45595 7.99996 1.45436Z"
      fill="currentColor"
    />
  </g>
  <defs>
    <clipPath id="clip0_2648_4262">
      <rect width="16" height="16" fill="currentColor" />
    </clipPath>
  </defs>
</svg>
