<svg
  xmlns="http://www.w3.org/2000/svg"
  width="16"
  height="16"
  viewBox="0 0 16 16"
  fill="currentColor"
>
  <path
    d="M12.9998 15.9999C12.8666 16 12.7364 15.9602 12.626 15.8856C12.5156 15.8109 12.4301 15.705 12.3805 15.5813L11.8178 14.1726L10.4072 13.5786C10.2862 13.5252 10.1836 13.4372 10.1125 13.3256C10.0413 13.2141 10.0047 13.0841 10.0072 12.9518C10.0097 12.8196 10.0512 12.691 10.1265 12.5823C10.2018 12.4735 10.3076 12.3894 10.4305 12.3406L11.8225 11.8133L12.3805 10.4186C12.4318 10.2967 12.518 10.1927 12.6281 10.1195C12.7383 10.0464 12.8676 10.0074 12.9998 10.0074C13.1321 10.0074 13.2614 10.0464 13.3715 10.1195C13.4817 10.1927 13.5678 10.2967 13.6192 10.4186L14.1798 11.8186L15.5798 12.3793C15.702 12.4303 15.8063 12.5164 15.8796 12.6266C15.953 12.7368 15.9921 12.8662 15.9921 12.9986C15.9921 13.131 15.953 13.2604 15.8796 13.3706C15.8063 13.4808 15.702 13.5668 15.5798 13.6179L14.1798 14.1786L13.6192 15.5786C13.57 15.7028 13.4847 15.8093 13.3743 15.8845C13.2638 15.9596 13.1334 15.9998 12.9998 15.9999ZM6.6665 13.9999C6.37848 14.0034 6.09708 13.9135 5.86442 13.7437C5.63176 13.5739 5.46035 13.3333 5.37583 13.0579L4.29983 9.69326L0.924496 8.56393C0.652071 8.47287 0.415641 8.29758 0.249354 8.06337C0.0830676 7.82916 -0.00446835 7.54815 -0.000610147 7.26094C0.00324806 6.97372 0.0983007 6.69517 0.270819 6.46551C0.443337 6.23585 0.68439 6.06697 0.959163 5.98326L4.30783 4.9606L5.43583 1.59126C5.5197 1.31451 5.69318 1.07349 5.92899 0.906102C6.16481 0.738716 6.44957 0.654464 6.73849 0.666597C7.02656 0.666987 7.30675 0.76066 7.53713 0.933596C7.76752 1.10653 7.93569 1.34943 8.01649 1.62593L9.03783 4.96926L12.3912 6.0426C12.6616 6.13332 12.8968 6.30672 13.0634 6.53831C13.23 6.7699 13.3196 7.04798 13.3196 7.33326C13.3196 7.61855 13.23 7.89662 13.0634 8.12821C12.8968 8.35981 12.6616 8.53321 12.3912 8.62393L9.03183 9.6986L7.95716 13.0579C7.87264 13.3333 7.70123 13.5739 7.46857 13.7437C7.23591 13.9135 6.95451 14.0034 6.6665 13.9999ZM6.74116 2.01526L5.4665 5.70926C5.43289 5.81009 5.37566 5.90143 5.29958 5.97565C5.22351 6.04987 5.13079 6.10482 5.02916 6.13593L1.3485 7.2586L5.0425 8.5366C5.14188 8.56971 5.23206 8.62578 5.30573 8.70026C5.37939 8.77473 5.43447 8.86552 5.4665 8.96526L6.6465 12.6519L7.8665 8.96526C7.89886 8.86404 7.95495 8.77201 8.0301 8.69686C8.10524 8.62172 8.19727 8.56562 8.2985 8.53326L11.9852 7.35393C11.9899 7.35262 11.9944 7.3506 11.9985 7.34793L8.2985 6.13326C8.19581 6.10043 8.10262 6.04318 8.02692 5.96643C7.95122 5.88968 7.89525 5.79572 7.86383 5.6926L6.74116 2.01526ZM13.6665 4.6666C13.5179 4.66659 13.3735 4.61693 13.2564 4.52549C13.1392 4.43406 13.0559 4.30609 13.0198 4.16193L12.7818 3.2086L11.8265 2.95193C11.6829 2.91335 11.5563 2.82788 11.4669 2.70911C11.3775 2.59033 11.3303 2.44507 11.3329 2.29641C11.3355 2.14776 11.3877 2.00424 11.4813 1.88867C11.5748 1.7731 11.7043 1.69212 11.8492 1.6586L12.7825 1.44193L13.0198 0.504597C13.056 0.360445 13.1392 0.232498 13.2564 0.141076C13.3735 0.0496542 13.5179 0 13.6665 0C13.8151 0 13.9595 0.0496542 14.0766 0.141076C14.1938 0.232498 14.277 0.360445 14.3132 0.504597L14.5492 1.44993L15.4945 1.6866C15.6386 1.72272 15.7666 1.80598 15.858 1.92314C15.9494 2.0403 15.9991 2.18465 15.9991 2.33326C15.9991 2.48187 15.9494 2.62622 15.858 2.74338C15.7666 2.86055 15.6386 2.9438 15.4945 2.97993L14.5492 3.2166L14.3132 4.16193C14.277 4.30609 14.1938 4.43406 14.0766 4.52549C13.9595 4.61693 13.8151 4.66659 13.6665 4.6666Z"
    fill="currentColor"
  />
</svg>
