<svg
  xmlns="http://www.w3.org/2000/svg"
  width="20"
  height="20"
  viewBox="0 0 20 20"
  fill="currentColor"
>
  <path
    d="M19.863 7.32821C19.6925 6.78563 19.352 6.31231 18.8917 5.97824C18.4314 5.64418 17.8759 5.4671 17.3072 5.47321H13.6663L12.5605 2.02655C12.3866 1.48401 12.0449 1.01073 11.5846 0.674935C11.1244 0.339144 10.5694 0.158203 9.99967 0.158203C9.42995 0.158203 8.87495 0.339144 8.4147 0.674935C7.95445 1.01073 7.61274 1.48401 7.43884 2.02655L6.33301 5.47321H2.69217C2.12529 5.47402 1.57317 5.65395 1.11466 5.9873C0.656146 6.32065 0.314706 6.79037 0.139107 7.32937C-0.0364925 7.86837 -0.0372697 8.44907 0.136886 8.98854C0.311042 9.52801 0.651223 9.99864 1.10884 10.3332L4.07217 12.4999L2.94551 15.989C2.76343 16.5302 2.76113 17.1157 2.93893 17.6583C3.11673 18.2009 3.46513 18.6714 3.93217 18.9999C4.39122 19.3389 4.9475 19.5205 5.51813 19.5176C6.08877 19.5148 6.64321 19.3276 7.09884 18.984L9.99967 16.849L12.9013 18.9816C13.3596 19.3186 13.9128 19.5017 14.4816 19.5044C15.0505 19.5072 15.6055 19.3295 16.067 18.997C16.5285 18.6644 16.8726 18.1941 17.0499 17.6536C17.2272 17.1131 17.2286 16.5304 17.0538 15.989L15.9272 12.4999L18.8938 10.3332C19.3567 10.0028 19.7009 9.53221 19.8754 8.991C20.05 8.44979 20.0456 7.86676 19.863 7.32821ZM17.9105 8.98738L14.4572 11.5115C14.3153 11.615 14.2098 11.7607 14.1556 11.9277C14.1014 12.0947 14.1014 12.2745 14.1555 12.4415L15.468 16.4999C15.5344 16.7057 15.5339 16.9273 15.4664 17.1328C15.3989 17.3383 15.268 17.5171 15.0925 17.6435C14.917 17.7699 14.706 17.8375 14.4897 17.8363C14.2734 17.8352 14.063 17.7656 13.8888 17.6374L10.493 15.1374C10.35 15.0323 10.1771 14.9757 9.99967 14.9757C9.8222 14.9757 9.64937 15.0323 9.50634 15.1374L6.11051 17.6374C5.93641 17.7673 5.72545 17.8384 5.50823 17.8404C5.291 17.8424 5.07879 17.7751 4.90236 17.6483C4.72594 17.5216 4.59446 17.3419 4.527 17.1355C4.45954 16.929 4.4596 16.7063 4.52717 16.4999L5.84384 12.4415C5.89794 12.2745 5.8979 12.0947 5.84372 11.9277C5.78955 11.7607 5.68401 11.615 5.54217 11.5115L2.08884 8.98738C1.91493 8.86004 1.7857 8.681 1.71962 8.47583C1.65355 8.27067 1.654 8.04986 1.72091 7.84496C1.78782 7.64006 1.91778 7.46155 2.09221 7.33493C2.26664 7.2083 2.47662 7.14003 2.69217 7.13988H6.94217C7.1186 7.13988 7.29048 7.08387 7.43305 6.97994C7.57561 6.87601 7.68152 6.72951 7.73551 6.56155L9.02717 2.53571C9.09347 2.3297 9.22343 2.15004 9.39834 2.02259C9.57325 1.89514 9.78409 1.82647 10.0005 1.82647C10.2169 1.82647 10.4278 1.89514 10.6027 2.02259C10.7776 2.15004 10.9075 2.3297 10.9738 2.53571L12.2655 6.56155C12.3195 6.72951 12.4254 6.87601 12.568 6.97994C12.7105 7.08387 12.8824 7.13988 13.0588 7.13988H17.3088C17.5244 7.14003 17.7344 7.2083 17.9088 7.33493C18.0832 7.46155 18.2132 7.64006 18.2801 7.84496C18.347 8.04986 18.3475 8.27067 18.2814 8.47583C18.2153 8.681 18.0861 8.86004 17.9122 8.98738H17.9105Z"
    fill="currentColor"
  />
</svg>
